# xmcd
# Track frame offsets:
# 150
# 13675
# 28610
#
# Disc length: 554 seconds
# Revision: 0
# Processed by: cddbd v1.4PL0 Copyright (c) Steve Scherf et al.
# Submitted via: VisiTrax 2.9.5.181 - For more info visit www.synapsa.com
#
DISCID=19022803
DTITLE=Jill Morris - Just One Kiss
DYEAR=1900
DGENRE=Country
TTITLE0=Just One Kiss
TTITLE1=Lovey Dovey
TTITLE2=I Get So Rattled
EXTD=
EXTT0=
EXTT1=
EXTT2=
PLAYORDER=
